<mxfile host="app.diagrams.net" modified="2020-10-10T21:01:16.853Z" agent="5.0 (Windows NT 10.0; Win64; x64) AppleWebKit/537.36 (KHTML, like Gecko) Chrome/85.0.4183.121 Safari/537.36" etag="1aj5yZPPv7zWtLg_VuBF" version="13.7.9" type="github">
  <diagram id="lXOUiH9Of8tFc-Pw4ONy" name="Page-1">
    <mxGraphModel dx="1422" dy="802" grid="1" gridSize="10" guides="1" tooltips="1" connect="1" arrows="1" fold="1" page="1" pageScale="1" pageWidth="850" pageHeight="1100" math="0" shadow="0">
      <root>
        <mxCell id="0" />
        <mxCell id="1" parent="0" />
        <mxCell id="8ERQrr4k4E4egSK8oobI-10" style="edgeStyle=orthogonalEdgeStyle;rounded=0;orthogonalLoop=1;jettySize=auto;html=1;exitX=1;exitY=1;exitDx=0;exitDy=0;entryX=0.5;entryY=0;entryDx=0;entryDy=0;" edge="1" parent="1" source="8ERQrr4k4E4egSK8oobI-1" target="8ERQrr4k4E4egSK8oobI-8">
          <mxGeometry relative="1" as="geometry">
            <mxPoint x="590" y="610" as="targetPoint" />
          </mxGeometry>
        </mxCell>
        <mxCell id="8ERQrr4k4E4egSK8oobI-12" style="edgeStyle=orthogonalEdgeStyle;rounded=0;orthogonalLoop=1;jettySize=auto;html=1;exitX=0;exitY=1;exitDx=0;exitDy=0;entryX=0.5;entryY=0;entryDx=0;entryDy=0;" edge="1" parent="1" source="8ERQrr4k4E4egSK8oobI-1" target="8ERQrr4k4E4egSK8oobI-11">
          <mxGeometry relative="1" as="geometry" />
        </mxCell>
        <mxCell id="8ERQrr4k4E4egSK8oobI-14" style="edgeStyle=orthogonalEdgeStyle;rounded=0;orthogonalLoop=1;jettySize=auto;html=1;exitX=0.5;exitY=1;exitDx=0;exitDy=0;entryX=0.5;entryY=0;entryDx=0;entryDy=0;" edge="1" parent="1" source="8ERQrr4k4E4egSK8oobI-1" target="8ERQrr4k4E4egSK8oobI-7">
          <mxGeometry relative="1" as="geometry" />
        </mxCell>
        <mxCell id="8ERQrr4k4E4egSK8oobI-20" style="edgeStyle=orthogonalEdgeStyle;rounded=0;orthogonalLoop=1;jettySize=auto;html=1;exitX=0.5;exitY=0;exitDx=0;exitDy=0;entryX=0.5;entryY=1;entryDx=0;entryDy=0;" edge="1" parent="1" source="8ERQrr4k4E4egSK8oobI-1" target="8ERQrr4k4E4egSK8oobI-2">
          <mxGeometry relative="1" as="geometry" />
        </mxCell>
        <mxCell id="8ERQrr4k4E4egSK8oobI-21" style="edgeStyle=orthogonalEdgeStyle;rounded=0;orthogonalLoop=1;jettySize=auto;html=1;exitX=1;exitY=0.5;exitDx=0;exitDy=0;entryX=0.5;entryY=1;entryDx=0;entryDy=0;" edge="1" parent="1" source="8ERQrr4k4E4egSK8oobI-1" target="8ERQrr4k4E4egSK8oobI-4">
          <mxGeometry relative="1" as="geometry" />
        </mxCell>
        <mxCell id="8ERQrr4k4E4egSK8oobI-22" style="edgeStyle=orthogonalEdgeStyle;rounded=0;orthogonalLoop=1;jettySize=auto;html=1;exitX=0;exitY=0.5;exitDx=0;exitDy=0;entryX=0.5;entryY=1;entryDx=0;entryDy=0;" edge="1" parent="1" source="8ERQrr4k4E4egSK8oobI-1" target="8ERQrr4k4E4egSK8oobI-3">
          <mxGeometry relative="1" as="geometry" />
        </mxCell>
        <mxCell id="8ERQrr4k4E4egSK8oobI-1" value="Home Page" style="rounded=0;whiteSpace=wrap;html=1;" vertex="1" parent="1">
          <mxGeometry x="370" y="500" width="110" height="60" as="geometry" />
        </mxCell>
        <mxCell id="8ERQrr4k4E4egSK8oobI-2" value="Live Code Demos" style="rounded=0;whiteSpace=wrap;html=1;" vertex="1" parent="1">
          <mxGeometry x="365" y="330" width="120" height="60" as="geometry" />
        </mxCell>
        <mxCell id="8ERQrr4k4E4egSK8oobI-3" value="" style="rounded=0;whiteSpace=wrap;html=1;" vertex="1" parent="1">
          <mxGeometry x="130" y="330" width="120" height="60" as="geometry" />
        </mxCell>
        <mxCell id="8ERQrr4k4E4egSK8oobI-4" value="Contact Information&lt;br&gt;+&lt;br&gt;Social Links" style="rounded=0;whiteSpace=wrap;html=1;" vertex="1" parent="1">
          <mxGeometry x="600" y="330" width="120" height="60" as="geometry" />
        </mxCell>
        <mxCell id="8ERQrr4k4E4egSK8oobI-7" value="Programs" style="rounded=1;whiteSpace=wrap;html=1;" vertex="1" parent="1">
          <mxGeometry x="365" y="620" width="120" height="60" as="geometry" />
        </mxCell>
        <mxCell id="8ERQrr4k4E4egSK8oobI-8" value="Experience | Groups" style="rounded=1;whiteSpace=wrap;html=1;" vertex="1" parent="1">
          <mxGeometry x="530" y="620" width="120" height="60" as="geometry" />
        </mxCell>
        <mxCell id="8ERQrr4k4E4egSK8oobI-11" value="About Me" style="rounded=1;whiteSpace=wrap;html=1;" vertex="1" parent="1">
          <mxGeometry x="200" y="620" width="120" height="60" as="geometry" />
        </mxCell>
      </root>
    </mxGraphModel>
  </diagram>
</mxfile>
